<svg id="Layer_1" data-name="Layer 1" xmlns="http://www.w3.org/2000/svg" viewBox="0 0 332.35 300"><defs><style>.cls-1{fill:#fff;}</style></defs><path class="cls-1" d="M218,399.61c0,.13,0,.26,0,.39,7.91-10.81,19.45-17.21,31.08-17.23s23.19,6.31,31.13,17.07c1.29-12.9,1.3-25.95,1.3-39V151.44c0-7.17,0-14.43-1.49-21.35-3.81-17.88-18.27-31.09-32.87-30-10.09.74-19.49,8.25-25,18.82-7,13.42-5.31,29.34-5.34,44.7l-.15,109.47-.1,78.82C216.48,367.81,216.46,383.79,218,399.61Z" transform="translate(-82.83 -100)"/><path class="cls-1" d="M305.93,349.74l0,.26c5.48-7.21,13.47-11.47,21.52-11.49s16,4.21,21.55,11.39a250,250,0,0,0,.9-26V184.29c0-4.78,0-9.62-1-14.23-2.64-11.92-12.65-20.73-22.75-20-7,.49-13.5,5.5-17.34,12.54-4.88,8.95-3.68,19.57-3.69,29.8l-.11,73-.07,52.55C304.91,328.54,304.9,339.19,305.93,349.74Z" transform="translate(-82.83 -100)"/><path class="cls-1" d="M402.46,280.94V281a8.2,8.2,0,0,1,12.44,0,54,54,0,0,0,.26-6.49V239.57a14.64,14.64,0,0,0-.29-3.56,6.69,6.69,0,0,0-6.58-5,6.55,6.55,0,0,0-5,3.14c-1.41,2.23-1.06,4.89-1.06,7.45l0,18.24,0,13.14A72.94,72.94,0,0,0,402.46,280.94Z" transform="translate(-82.83 -100)"/><path class="cls-1" d="M365.81,306.43l0,.12a17.46,17.46,0,0,1,25.84-.05,104.13,104.13,0,0,0,.54-13V223.7a27.38,27.38,0,0,0-.62-7.12,13.18,13.18,0,0,0-24-3.73c-2.93,4.47-2.21,9.78-2.22,14.9l-.06,36.49-.05,26.27A134.26,134.26,0,0,0,365.81,306.43Z" transform="translate(-82.83 -100)"/><path class="cls-1" d="M192.07,349.74l0,.26c-5.48-7.21-13.47-11.47-21.52-11.49S154.48,342.72,149,349.9a250,250,0,0,1-.9-26V184.29c0-4.78,0-9.62,1-14.23,2.64-11.92,12.65-20.73,22.75-20,7,.49,13.5,5.5,17.34,12.54,4.88,8.95,3.68,19.57,3.69,29.8l.11,73,.07,52.55C193.09,328.54,193.1,339.19,192.07,349.74Z" transform="translate(-82.83 -100)"/><path class="cls-1" d="M95.54,280.94V281a8.2,8.2,0,0,0-12.44,0,54,54,0,0,1-.26-6.49V239.57a14.64,14.64,0,0,1,.29-3.56,6.69,6.69,0,0,1,6.58-5,6.55,6.55,0,0,1,5,3.14c1.41,2.23,1.06,4.89,1.06,7.45l0,18.24,0,13.14A72.94,72.94,0,0,1,95.54,280.94Z" transform="translate(-82.83 -100)"/><path class="cls-1" d="M132.19,306.43l0,.12a17.46,17.46,0,0,0-25.84-.05,104.13,104.13,0,0,1-.54-13V223.7a27.38,27.38,0,0,1,.62-7.12,13.18,13.18,0,0,1,24.05-3.73c2.93,4.47,2.21,9.78,2.22,14.9l.06,36.49,0,26.27A134.26,134.26,0,0,1,132.19,306.43Z" transform="translate(-82.83 -100)"/></svg>