<?xml version="1.0" encoding="utf-8"?>
<!-- Generator: Adobe Illustrator 26.0.1, SVG Export Plug-In . SVG Version: 6.00 Build 0)  -->
<svg version="1.1" id="Layer_1" xmlns="http://www.w3.org/2000/svg" xmlns:xlink="http://www.w3.org/1999/xlink" x="0px" y="0px"
	 viewBox="0 0 275.6 232" style="enable-background:new 0 0 275.6 232;" xml:space="preserve">
<style type="text/css">
	.st0{fill:#FFFFFF;}
</style>
<path class="st0" d="M106.8,231.7c0,0.1,0,0.2,0,0.3c7.9-8.3,19.4-13.3,31.1-13.3c11.6,0,23.2,4.9,31.1,13.2
	c1.3-10,1.3-20.1,1.3-30.1v-162c0-5.5,0-11.2-1.5-16.5C165,9.4,150.5-0.8,135.9,0.1c-10.1,0.5-19.5,6.4-25,14.5
	c-7,10.4-5.3,22.7-5.3,34.6l-0.1,84.7l-0.1,60.9C105.2,207.2,105.2,219.5,106.8,231.7z"/>
<path class="st0" d="M188.6,193.2v0.2c4.9-5.5,12-8.9,19.2-8.9s14.3,3.3,19.3,8.8c0.7-6.7,1-13.4,0.8-20.2v-108
	c0-3.7,0-7.5-0.9-11.1c-2.3-9.2-11.2-16-20.3-15.5c-6.2,0.3-12,4.2-15.4,9.6c-4.4,6.9-3.3,15.2-3.3,23.1l-0.1,56.5l-0.1,40.7
	C187.7,176.7,187.7,184.9,188.6,193.2z"/>
<path class="st0" d="M266.1,140L266.1,140c2.2-2.6,6-2.9,8.7-0.7c0.2,0.2,0.4,0.4,0.7,0.7c0.1-1.6,0.2-3.4,0.2-5v-27
	c0-1,0-1.8-0.2-2.7c-0.6-2.3-2.6-3.9-4.9-3.9c-1.6,0.1-2.9,1.1-3.7,2.4c-1,1.7-0.8,3.8-0.8,5.7v14.1v10.2
	C265.9,135.8,266,137.9,266.1,140z"/>
<path class="st0" d="M237.5,159.7L237.5,159.7c5.5-5.4,14.7-5.9,20.7-0.9c0.3,0.3,0.7,0.5,1,0.9c0.4-3.4,0.5-6.7,0.4-10.1v-54
	c0.1-1.8-0.1-3.7-0.5-5.5c-1.5-5.4-7.5-8.8-13.4-7.4c-2.8,0.7-5.2,2.3-6.7,4.6c-2.4,3.5-1.8,7.6-1.8,11.5l-0.1,28.2v20.3
	C236.9,151.4,237.1,155.6,237.5,159.7z"/>
<path class="st0" d="M87.3,193.2v0.2c-4.9-5.5-12-8.9-19.2-8.9c-7.1,0-14.3,3.3-19.3,8.8c-0.7-6.7-1-13.4-0.8-20.2v-108
	c0-3.7,0-7.5,0.9-11.1c2.3-9.2,11.2-16,20.3-15.5c6.2,0.3,12,4.2,15.4,9.6c4.4,6.9,3.3,15.2,3.3,23.1l0.1,56.5l0.1,40.7
	C88.2,176.7,88.2,185,87.3,193.2z"/>
<path class="st0" d="M9.7,140L9.7,140c-2.2-2.6-6-2.9-8.7-0.7c-0.2,0.2-0.4,0.4-0.7,0.7c-0.1-1.6-0.2-3.4-0.2-5v-27
	c0-1,0-1.8,0.2-2.7c0.6-2.3,2.6-3.9,4.9-3.9c1.6,0.1,2.9,1.1,3.7,2.4c1,1.7,0.8,3.8,0.8,5.7v14.1v10.2C10,135.9,9.9,137.9,9.7,140z"
	/>
<path class="st0" d="M38.4,159.7L38.4,159.7c-5.5-5.4-14.7-5.9-20.7-0.9c-0.3,0.3-0.7,0.5-1,0.9c-0.4-3.4-0.5-6.7-0.4-10.1v-54
	c-0.1-1.8,0.1-3.7,0.5-5.5c1.5-5.4,7.5-8.8,13.4-7.4c2.8,0.7,5.2,2.3,6.7,4.6c2.4,3.5,1.8,7.6,1.8,11.5l0.1,28.2v20.3
	C38.9,151.5,38.8,155.6,38.4,159.7z"/>
</svg>
